<svg xmlns="http://www.w3.org/2000/svg" width="90.96" height="81.079" viewBox="0 0 90.96 81.079">
  <g id="Group_18416" data-name="Group 18416" transform="translate(-764.25 -265.21)">
    <g id="stethoscope-svgrepo-com" transform="translate(763 263.96)">
      <circle id="Ellipse_148" data-name="Ellipse 148" cx="11.313" cy="11.313" r="11.313" transform="translate(56.873 45.56)" fill="#061f3a"/>
      <path id="Path_533" data-name="Path 533" d="M41.789,1.25a2.828,2.828,0,0,1,2.828,2.828v.948c.419.006.777.02,1.111.05A14.141,14.141,0,0,1,58.569,17.917c.055.624.055,1.331.055,2.369V24.9A28.149,28.149,0,0,1,30.476,53.047,29.226,29.226,0,0,1,1.25,23.821V20.286c0-1.038,0-1.745.055-2.369A14.142,14.142,0,0,1,14.146,5.076c.587-.052,1.248-.055,2.188-.055V4.078a2.828,2.828,0,1,1,5.657,0V11.62a2.828,2.828,0,0,1-5.657,0v-.943c-.993,0-1.381.006-1.69.033a8.485,8.485,0,0,0-7.7,7.7c-.03.342-.033.778-.033,2.018v3.388A23.569,23.569,0,0,0,30.476,47.39,22.492,22.492,0,0,0,52.968,24.9V20.433c0-1.24,0-1.676-.033-2.018a8.485,8.485,0,0,0-7.7-7.7c-.16-.014-.34-.022-.613-.027v.937a2.828,2.828,0,0,1-5.657,0V4.078A2.828,2.828,0,0,1,41.789,1.25Z" fill="#061f3a"/>
      <path id="Path_534" data-name="Path 534" d="M8.25,14.953v7.733A21.684,21.684,0,0,0,29.934,44.37h3.328A18.352,18.352,0,0,0,49.214,35.1a13.82,13.82,0,0,0,1.619-5.057,11.385,11.385,0,0,1-5.658-.405A7.807,7.807,0,0,1,44.3,32.3a12.694,12.694,0,0,1-11.039,6.416H29.934A16.027,16.027,0,0,1,13.907,22.686V14.948q-1.4.14-2.828.141T8.25,14.953Z" transform="translate(19.398 37.959)" fill="#061f3a" opacity="0.5"/>
    </g>
    <path id="Path_535" data-name="Path 535" d="M13.245,11A2.474,2.474,0,0,0,9.7,14.451Zm2.889,10.05a2.474,2.474,0,1,0,3.542-3.454Zm3.542-3.454a2.474,2.474,0,1,0-3.542,3.454Zm2.889,10.05a2.474,2.474,0,0,0,3.542-3.454Zm-2.889-6.6a2.474,2.474,0,1,0-3.542-3.454ZM9.7,24.19a2.474,2.474,0,0,0,3.542,3.454Zm6.431-6.6a2.474,2.474,0,1,0,3.542,3.454Zm9.974-3.143A2.474,2.474,0,1,0,22.565,11Zm-16.405,0,6.431,6.6,3.542-3.454L13.245,11Zm6.431,6.6,6.431,6.6,3.542-3.454-6.431-6.6Zm0-3.454L9.7,24.19l3.542,3.454,6.431-6.6Zm3.542,3.454,6.431-6.6L22.565,11l-6.431,6.6Z" transform="translate(816.178 285.5) rotate(-45)" fill="#246fc2"/>
  </g>
</svg>
