<svg xmlns="http://www.w3.org/2000/svg" width="573.704" height="322.707" viewBox="0 0 573.704 322.707">
  <g id="patternpad-2024-09-11-13-11-05" opacity="0.35">
    <rect id="Rectangle_3" data-name="Rectangle 3" width="573.704" height="322.707" fill="#fff" opacity="0"/>
    <circle id="Ellipse_1" data-name="Ellipse 1" cx="3.585" cy="3.585" r="3.585" transform="translate(14.343 14.343)" fill="#f9d1d5"/>
    <circle id="Ellipse_2" data-name="Ellipse 2" cx="3.585" cy="3.585" r="3.585" transform="translate(50.198 14.343)" fill="#ed6b79"/>
    <circle id="Ellipse_3" data-name="Ellipse 3" cx="3.585" cy="3.585" r="3.585" transform="translate(86.054 14.343)" fill="#eb5d6c"/>
    <circle id="Ellipse_4" data-name="Ellipse 4" cx="3.585" cy="3.585" r="3.585" transform="translate(121.914 14.343)" fill="#eb5968"/>
    <circle id="Ellipse_5" data-name="Ellipse 5" cx="3.585" cy="3.585" r="3.585" transform="translate(157.769 14.343)" fill="#f4a4ac"/>
    <circle id="Ellipse_6" data-name="Ellipse 6" cx="3.585" cy="3.585" r="3.585" transform="translate(193.624 14.343)" fill="#fff"/>
    <circle id="Ellipse_7" data-name="Ellipse 7" cx="3.585" cy="3.585" r="3.585" transform="translate(229.48 14.343)" fill="#fefafb"/>
    <circle id="Ellipse_8" data-name="Ellipse 8" cx="3.585" cy="3.585" r="3.585" transform="translate(265.335 14.343)" fill="#fff"/>
    <circle id="Ellipse_9" data-name="Ellipse 9" cx="3.585" cy="3.585" r="3.585" transform="translate(301.195 14.343)" fill="#fff"/>
    <circle id="Ellipse_10" data-name="Ellipse 10" cx="3.585" cy="3.585" r="3.585" transform="translate(337.05 14.343)" fill="#fff"/>
    <circle id="Ellipse_11" data-name="Ellipse 11" cx="3.585" cy="3.585" r="3.585" transform="translate(372.906 14.343)" fill="#fef3f4"/>
    <circle id="Ellipse_12" data-name="Ellipse 12" cx="3.585" cy="3.585" r="3.585" transform="translate(408.761 14.343)" fill="#f7b9bf"/>
    <circle id="Ellipse_13" data-name="Ellipse 13" cx="3.585" cy="3.585" r="3.585" transform="translate(444.621 14.343)" fill="#e62f42"/>
    <circle id="Ellipse_14" data-name="Ellipse 14" cx="3.585" cy="3.585" r="3.585" transform="translate(480.477 14.343)" fill="#e62e42"/>
    <circle id="Ellipse_15" data-name="Ellipse 15" cx="3.585" cy="3.585" r="3.585" transform="translate(516.332 14.343)" fill="#e52b3e"/>
    <circle id="Ellipse_16" data-name="Ellipse 16" cx="3.585" cy="3.585" r="3.585" transform="translate(552.187 14.343)" fill="#fff"/>
    <circle id="Ellipse_17" data-name="Ellipse 17" cx="3.585" cy="3.585" r="3.585" transform="translate(14.343 50.198)" fill="#fbe1e4"/>
    <circle id="Ellipse_18" data-name="Ellipse 18" cx="3.585" cy="3.585" r="3.585" transform="translate(50.198 50.198)" fill="#eb5a69"/>
    <circle id="Ellipse_19" data-name="Ellipse 19" cx="3.585" cy="3.585" r="3.585" transform="translate(86.054 50.198)" fill="#fff"/>
    <circle id="Ellipse_20" data-name="Ellipse 20" cx="3.585" cy="3.585" r="3.585" transform="translate(121.914 50.198)" fill="#fff"/>
    <circle id="Ellipse_21" data-name="Ellipse 21" cx="3.585" cy="3.585" r="3.585" transform="translate(157.769 50.198)" fill="#fff"/>
    <circle id="Ellipse_22" data-name="Ellipse 22" cx="3.585" cy="3.585" r="3.585" transform="translate(193.624 50.198)" fill="#fffcfc"/>
    <circle id="Ellipse_23" data-name="Ellipse 23" cx="3.585" cy="3.585" r="3.585" transform="translate(229.48 50.198)" fill="#f39aa3"/>
    <circle id="Ellipse_24" data-name="Ellipse 24" cx="3.585" cy="3.585" r="3.585" transform="translate(265.335 50.198)" fill="#fff"/>
    <circle id="Ellipse_25" data-name="Ellipse 25" cx="3.585" cy="3.585" r="3.585" transform="translate(301.195 50.198)" fill="#f7b9c0"/>
    <circle id="Ellipse_26" data-name="Ellipse 26" cx="3.585" cy="3.585" r="3.585" transform="translate(337.05 50.198)" fill="#fef6f7"/>
    <circle id="Ellipse_27" data-name="Ellipse 27" cx="3.585" cy="3.585" r="3.585" transform="translate(372.906 50.198)" fill="#f6b3ba"/>
    <circle id="Ellipse_28" data-name="Ellipse 28" cx="3.585" cy="3.585" r="3.585" transform="translate(408.761 50.198)" fill="#fff"/>
    <circle id="Ellipse_29" data-name="Ellipse 29" cx="3.585" cy="3.585" r="3.585" transform="translate(444.621 50.198)" fill="#fff"/>
    <circle id="Ellipse_30" data-name="Ellipse 30" cx="3.585" cy="3.585" r="3.585" transform="translate(480.477 50.198)" fill="#fff"/>
    <circle id="Ellipse_31" data-name="Ellipse 31" cx="3.585" cy="3.585" r="3.585" transform="translate(516.332 50.198)" fill="#ed6876"/>
    <circle id="Ellipse_32" data-name="Ellipse 32" cx="3.585" cy="3.585" r="3.585" transform="translate(552.187 50.198)" fill="#fff"/>
    <circle id="Ellipse_33" data-name="Ellipse 33" cx="3.585" cy="3.585" r="3.585" transform="translate(14.343 86.054)" fill="#fff"/>
    <circle id="Ellipse_34" data-name="Ellipse 34" cx="3.585" cy="3.585" r="3.585" transform="translate(50.198 86.054)" fill="#fad9dc"/>
    <circle id="Ellipse_35" data-name="Ellipse 35" cx="3.585" cy="3.585" r="3.585" transform="translate(86.054 86.054)" fill="#fff"/>
    <circle id="Ellipse_36" data-name="Ellipse 36" cx="3.585" cy="3.585" r="3.585" transform="translate(121.914 86.054)" fill="#fff"/>
    <circle id="Ellipse_37" data-name="Ellipse 37" cx="3.585" cy="3.585" r="3.585" transform="translate(157.769 86.054)" fill="#fff"/>
    <circle id="Ellipse_38" data-name="Ellipse 38" cx="3.585" cy="3.585" r="3.585" transform="translate(193.624 86.054)" fill="#fff"/>
    <circle id="Ellipse_39" data-name="Ellipse 39" cx="3.585" cy="3.585" r="3.585" transform="translate(229.48 86.054)" fill="#fff"/>
    <circle id="Ellipse_40" data-name="Ellipse 40" cx="3.585" cy="3.585" r="3.585" transform="translate(265.335 86.054)" fill="#fff"/>
    <circle id="Ellipse_41" data-name="Ellipse 41" cx="3.585" cy="3.585" r="3.585" transform="translate(301.195 86.054)" fill="#fff"/>
    <circle id="Ellipse_42" data-name="Ellipse 42" cx="3.585" cy="3.585" r="3.585" transform="translate(337.05 86.054)" fill="#fff"/>
    <circle id="Ellipse_43" data-name="Ellipse 43" cx="3.585" cy="3.585" r="3.585" transform="translate(372.906 86.054)" fill="#f0828e"/>
    <circle id="Ellipse_44" data-name="Ellipse 44" cx="3.585" cy="3.585" r="3.585" transform="translate(408.761 86.054)" fill="#f7c1c6"/>
    <circle id="Ellipse_45" data-name="Ellipse 45" cx="3.585" cy="3.585" r="3.585" transform="translate(444.621 86.054)" fill="#fff"/>
    <circle id="Ellipse_46" data-name="Ellipse 46" cx="3.585" cy="3.585" r="3.585" transform="translate(480.477 86.054)" fill="#fff"/>
    <circle id="Ellipse_47" data-name="Ellipse 47" cx="3.585" cy="3.585" r="3.585" transform="translate(516.332 86.054)" fill="#fff"/>
    <circle id="Ellipse_48" data-name="Ellipse 48" cx="3.585" cy="3.585" r="3.585" transform="translate(552.187 86.054)" fill="#fce7e9"/>
    <circle id="Ellipse_49" data-name="Ellipse 49" cx="3.585" cy="3.585" r="3.585" transform="translate(14.343 121.914)" fill="#fff"/>
    <circle id="Ellipse_50" data-name="Ellipse 50" cx="3.585" cy="3.585" r="3.585" transform="translate(50.198 121.914)" fill="#fff"/>
    <circle id="Ellipse_51" data-name="Ellipse 51" cx="3.585" cy="3.585" r="3.585" transform="translate(86.054 121.914)" fill="#fefafa"/>
    <circle id="Ellipse_52" data-name="Ellipse 52" cx="3.585" cy="3.585" r="3.585" transform="translate(121.914 121.914)" fill="#fff"/>
    <circle id="Ellipse_53" data-name="Ellipse 53" cx="3.585" cy="3.585" r="3.585" transform="translate(157.769 121.914)" fill="#fff"/>
    <circle id="Ellipse_54" data-name="Ellipse 54" cx="3.585" cy="3.585" r="3.585" transform="translate(193.624 121.914)" fill="#fff"/>
    <circle id="Ellipse_55" data-name="Ellipse 55" cx="3.585" cy="3.585" r="3.585" transform="translate(229.48 121.914)" fill="#ec606f"/>
    <circle id="Ellipse_56" data-name="Ellipse 56" cx="3.585" cy="3.585" r="3.585" transform="translate(265.335 121.914)" fill="#fff"/>
    <circle id="Ellipse_57" data-name="Ellipse 57" cx="3.585" cy="3.585" r="3.585" transform="translate(301.195 121.914)" fill="#fff"/>
    <circle id="Ellipse_58" data-name="Ellipse 58" cx="3.585" cy="3.585" r="3.585" transform="translate(337.05 121.914)" fill="#fdecee"/>
    <circle id="Ellipse_59" data-name="Ellipse 59" cx="3.585" cy="3.585" r="3.585" transform="translate(372.906 121.914)" fill="#ef7c88"/>
    <circle id="Ellipse_60" data-name="Ellipse 60" cx="3.585" cy="3.585" r="3.585" transform="translate(408.761 121.914)" fill="#fff"/>
    <circle id="Ellipse_61" data-name="Ellipse 61" cx="3.585" cy="3.585" r="3.585" transform="translate(444.621 121.914)" fill="#fff"/>
    <circle id="Ellipse_62" data-name="Ellipse 62" cx="3.585" cy="3.585" r="3.585" transform="translate(480.477 121.914)" fill="#fdecee"/>
    <circle id="Ellipse_63" data-name="Ellipse 63" cx="3.585" cy="3.585" r="3.585" transform="translate(516.332 121.914)" fill="#ee717e"/>
    <circle id="Ellipse_64" data-name="Ellipse 64" cx="3.585" cy="3.585" r="3.585" transform="translate(552.187 121.914)" fill="#f0848f"/>
    <circle id="Ellipse_65" data-name="Ellipse 65" cx="3.585" cy="3.585" r="3.585" transform="translate(14.343 157.769)" fill="#f6b2b9"/>
    <circle id="Ellipse_66" data-name="Ellipse 66" cx="3.585" cy="3.585" r="3.585" transform="translate(50.198 157.769)" fill="#fff"/>
    <circle id="Ellipse_67" data-name="Ellipse 67" cx="3.585" cy="3.585" r="3.585" transform="translate(86.054 157.769)" fill="#fff"/>
    <circle id="Ellipse_68" data-name="Ellipse 68" cx="3.585" cy="3.585" r="3.585" transform="translate(121.914 157.769)" fill="#f18e98"/>
    <circle id="Ellipse_69" data-name="Ellipse 69" cx="3.585" cy="3.585" r="3.585" transform="translate(157.769 157.769)" fill="#fff"/>
    <circle id="Ellipse_70" data-name="Ellipse 70" cx="3.585" cy="3.585" r="3.585" transform="translate(193.624 157.769)" fill="#fdebed"/>
    <circle id="Ellipse_71" data-name="Ellipse 71" cx="3.585" cy="3.585" r="3.585" transform="translate(229.48 157.769)" fill="#e94c5d"/>
    <circle id="Ellipse_72" data-name="Ellipse 72" cx="3.585" cy="3.585" r="3.585" transform="translate(265.335 157.769)" fill="#fdeff0"/>
    <circle id="Ellipse_73" data-name="Ellipse 73" cx="3.585" cy="3.585" r="3.585" transform="translate(301.195 157.769)" fill="#fff"/>
    <circle id="Ellipse_74" data-name="Ellipse 74" cx="3.585" cy="3.585" r="3.585" transform="translate(337.05 157.769)" fill="#f5aab2"/>
    <circle id="Ellipse_75" data-name="Ellipse 75" cx="3.585" cy="3.585" r="3.585" transform="translate(372.906 157.769)" fill="#fff"/>
    <circle id="Ellipse_76" data-name="Ellipse 76" cx="3.585" cy="3.585" r="3.585" transform="translate(408.761 157.769)" fill="#fff"/>
    <circle id="Ellipse_77" data-name="Ellipse 77" cx="3.585" cy="3.585" r="3.585" transform="translate(444.621 157.769)" fill="#fff"/>
    <circle id="Ellipse_78" data-name="Ellipse 78" cx="3.585" cy="3.585" r="3.585" transform="translate(480.477 157.769)" fill="#fff"/>
    <circle id="Ellipse_79" data-name="Ellipse 79" cx="3.585" cy="3.585" r="3.585" transform="translate(516.332 157.769)" fill="#fff"/>
    <circle id="Ellipse_80" data-name="Ellipse 80" cx="3.585" cy="3.585" r="3.585" transform="translate(552.187 157.769)" fill="#fff"/>
    <circle id="Ellipse_81" data-name="Ellipse 81" cx="3.585" cy="3.585" r="3.585" transform="translate(14.343 193.624)" fill="#fff"/>
    <circle id="Ellipse_82" data-name="Ellipse 82" cx="3.585" cy="3.585" r="3.585" transform="translate(50.198 193.624)" fill="#fff"/>
    <circle id="Ellipse_83" data-name="Ellipse 83" cx="3.585" cy="3.585" r="3.585" transform="translate(86.054 193.624)" fill="#fdeeef"/>
    <circle id="Ellipse_84" data-name="Ellipse 84" cx="3.585" cy="3.585" r="3.585" transform="translate(121.914 193.624)" fill="#fff"/>
    <circle id="Ellipse_85" data-name="Ellipse 85" cx="3.585" cy="3.585" r="3.585" transform="translate(157.769 193.624)" fill="#e94557"/>
    <circle id="Ellipse_86" data-name="Ellipse 86" cx="3.585" cy="3.585" r="3.585" transform="translate(193.624 193.624)" fill="#fffcfc"/>
    <circle id="Ellipse_87" data-name="Ellipse 87" cx="3.585" cy="3.585" r="3.585" transform="translate(229.48 193.624)" fill="#fbdee1"/>
    <circle id="Ellipse_88" data-name="Ellipse 88" cx="3.585" cy="3.585" r="3.585" transform="translate(265.335 193.624)" fill="#fff"/>
    <circle id="Ellipse_89" data-name="Ellipse 89" cx="3.585" cy="3.585" r="3.585" transform="translate(301.195 193.624)" fill="#f9ced3"/>
    <circle id="Ellipse_90" data-name="Ellipse 90" cx="3.585" cy="3.585" r="3.585" transform="translate(337.05 193.624)" fill="#f8c7cd"/>
    <circle id="Ellipse_91" data-name="Ellipse 91" cx="3.585" cy="3.585" r="3.585" transform="translate(372.906 193.624)" fill="#fff"/>
    <circle id="Ellipse_92" data-name="Ellipse 92" cx="3.585" cy="3.585" r="3.585" transform="translate(408.761 193.624)" fill="#e84153"/>
    <circle id="Ellipse_93" data-name="Ellipse 93" cx="3.585" cy="3.585" r="3.585" transform="translate(444.621 193.624)" fill="#fad5d9"/>
    <circle id="Ellipse_94" data-name="Ellipse 94" cx="3.585" cy="3.585" r="3.585" transform="translate(480.477 193.624)" fill="#e7394b"/>
    <circle id="Ellipse_95" data-name="Ellipse 95" cx="3.585" cy="3.585" r="3.585" transform="translate(516.332 193.624)" fill="#fff"/>
    <circle id="Ellipse_96" data-name="Ellipse 96" cx="3.585" cy="3.585" r="3.585" transform="translate(552.187 193.624)" fill="#f39aa3"/>
    <circle id="Ellipse_97" data-name="Ellipse 97" cx="3.585" cy="3.585" r="3.585" transform="translate(14.343 229.48)" fill="#fff"/>
    <circle id="Ellipse_98" data-name="Ellipse 98" cx="3.585" cy="3.585" r="3.585" transform="translate(50.198 229.48)" fill="#fad8db"/>
    <circle id="Ellipse_99" data-name="Ellipse 99" cx="3.585" cy="3.585" r="3.585" transform="translate(86.054 229.48)" fill="#f39ea7"/>
    <circle id="Ellipse_100" data-name="Ellipse 100" cx="3.585" cy="3.585" r="3.585" transform="translate(121.914 229.48)" fill="#e63447"/>
    <circle id="Ellipse_101" data-name="Ellipse 101" cx="3.585" cy="3.585" r="3.585" transform="translate(157.769 229.48)" fill="#fff"/>
    <circle id="Ellipse_102" data-name="Ellipse 102" cx="3.585" cy="3.585" r="3.585" transform="translate(193.624 229.48)" fill="#fff"/>
    <circle id="Ellipse_103" data-name="Ellipse 103" cx="3.585" cy="3.585" r="3.585" transform="translate(229.48 229.48)" fill="#fad9dc"/>
    <circle id="Ellipse_104" data-name="Ellipse 104" cx="3.585" cy="3.585" r="3.585" transform="translate(265.335 229.48)" fill="#fff"/>
    <circle id="Ellipse_105" data-name="Ellipse 105" cx="3.585" cy="3.585" r="3.585" transform="translate(301.195 229.48)" fill="#fff"/>
    <circle id="Ellipse_106" data-name="Ellipse 106" cx="3.585" cy="3.585" r="3.585" transform="translate(337.05 229.48)" fill="#fff"/>
    <circle id="Ellipse_107" data-name="Ellipse 107" cx="3.585" cy="3.585" r="3.585" transform="translate(372.906 229.48)" fill="#fff"/>
    <circle id="Ellipse_108" data-name="Ellipse 108" cx="3.585" cy="3.585" r="3.585" transform="translate(408.761 229.48)" fill="#fff"/>
    <circle id="Ellipse_109" data-name="Ellipse 109" cx="3.585" cy="3.585" r="3.585" transform="translate(444.621 229.48)" fill="#fff"/>
    <circle id="Ellipse_110" data-name="Ellipse 110" cx="3.585" cy="3.585" r="3.585" transform="translate(480.477 229.48)" fill="#fff"/>
    <circle id="Ellipse_111" data-name="Ellipse 111" cx="3.585" cy="3.585" r="3.585" transform="translate(516.332 229.48)" fill="#fff"/>
    <circle id="Ellipse_112" data-name="Ellipse 112" cx="3.585" cy="3.585" r="3.585" transform="translate(552.187 229.48)" fill="#fff"/>
    <circle id="Ellipse_113" data-name="Ellipse 113" cx="3.585" cy="3.585" r="3.585" transform="translate(14.343 265.335)" fill="#fff"/>
    <circle id="Ellipse_114" data-name="Ellipse 114" cx="3.585" cy="3.585" r="3.585" transform="translate(50.198 265.335)" fill="#fff"/>
    <circle id="Ellipse_115" data-name="Ellipse 115" cx="3.585" cy="3.585" r="3.585" transform="translate(86.054 265.335)" fill="#fad8dc"/>
    <circle id="Ellipse_116" data-name="Ellipse 116" cx="3.585" cy="3.585" r="3.585" transform="translate(121.914 265.335)" fill="#ee7581"/>
    <circle id="Ellipse_117" data-name="Ellipse 117" cx="3.585" cy="3.585" r="3.585" transform="translate(157.769 265.335)" fill="#fff"/>
    <circle id="Ellipse_118" data-name="Ellipse 118" cx="3.585" cy="3.585" r="3.585" transform="translate(193.624 265.335)" fill="#eb5767"/>
    <circle id="Ellipse_119" data-name="Ellipse 119" cx="3.585" cy="3.585" r="3.585" transform="translate(229.48 265.335)" fill="#fff"/>
    <circle id="Ellipse_120" data-name="Ellipse 120" cx="3.585" cy="3.585" r="3.585" transform="translate(265.335 265.335)" fill="#e5293d"/>
    <circle id="Ellipse_121" data-name="Ellipse 121" cx="3.585" cy="3.585" r="3.585" transform="translate(301.195 265.335)" fill="#ee6f7d"/>
    <circle id="Ellipse_122" data-name="Ellipse 122" cx="3.585" cy="3.585" r="3.585" transform="translate(337.05 265.335)" fill="#e62e41"/>
    <circle id="Ellipse_123" data-name="Ellipse 123" cx="3.585" cy="3.585" r="3.585" transform="translate(372.906 265.335)" fill="#fff"/>
    <circle id="Ellipse_124" data-name="Ellipse 124" cx="3.585" cy="3.585" r="3.585" transform="translate(408.761 265.335)" fill="#f8c8cd"/>
    <circle id="Ellipse_125" data-name="Ellipse 125" cx="3.585" cy="3.585" r="3.585" transform="translate(444.621 265.335)" fill="#e84355"/>
    <circle id="Ellipse_126" data-name="Ellipse 126" cx="3.585" cy="3.585" r="3.585" transform="translate(480.477 265.335)" fill="#f18e99"/>
    <circle id="Ellipse_127" data-name="Ellipse 127" cx="3.585" cy="3.585" r="3.585" transform="translate(516.332 265.335)" fill="#fff"/>
    <circle id="Ellipse_128" data-name="Ellipse 128" cx="3.585" cy="3.585" r="3.585" transform="translate(552.187 265.335)" fill="#fff"/>
    <circle id="Ellipse_129" data-name="Ellipse 129" cx="3.585" cy="3.585" r="3.585" transform="translate(14.343 301.195)" fill="#fff"/>
    <circle id="Ellipse_130" data-name="Ellipse 130" cx="3.585" cy="3.585" r="3.585" transform="translate(50.198 301.195)" fill="#e63043"/>
    <circle id="Ellipse_131" data-name="Ellipse 131" cx="3.585" cy="3.585" r="3.585" transform="translate(86.054 301.195)" fill="#fff"/>
    <circle id="Ellipse_132" data-name="Ellipse 132" cx="3.585" cy="3.585" r="3.585" transform="translate(121.914 301.195)" fill="#fad7da"/>
    <circle id="Ellipse_133" data-name="Ellipse 133" cx="3.585" cy="3.585" r="3.585" transform="translate(157.769 301.195)" fill="#f9d0d4"/>
    <circle id="Ellipse_134" data-name="Ellipse 134" cx="3.585" cy="3.585" r="3.585" transform="translate(193.624 301.195)" fill="#fff"/>
    <circle id="Ellipse_135" data-name="Ellipse 135" cx="3.585" cy="3.585" r="3.585" transform="translate(229.48 301.195)" fill="#fbdee1"/>
    <circle id="Ellipse_136" data-name="Ellipse 136" cx="3.585" cy="3.585" r="3.585" transform="translate(265.335 301.195)" fill="#f9d0d4"/>
    <circle id="Ellipse_137" data-name="Ellipse 137" cx="3.585" cy="3.585" r="3.585" transform="translate(301.195 301.195)" fill="#e7394c"/>
    <circle id="Ellipse_138" data-name="Ellipse 138" cx="3.585" cy="3.585" r="3.585" transform="translate(337.05 301.195)" fill="#fff"/>
    <circle id="Ellipse_139" data-name="Ellipse 139" cx="3.585" cy="3.585" r="3.585" transform="translate(372.906 301.195)" fill="#e94c5c"/>
    <circle id="Ellipse_140" data-name="Ellipse 140" cx="3.585" cy="3.585" r="3.585" transform="translate(408.761 301.195)" fill="#f4a2aa"/>
    <circle id="Ellipse_141" data-name="Ellipse 141" cx="3.585" cy="3.585" r="3.585" transform="translate(444.621 301.195)" fill="#e73a4d"/>
    <circle id="Ellipse_142" data-name="Ellipse 142" cx="3.585" cy="3.585" r="3.585" transform="translate(480.477 301.195)" fill="#fbdcdf"/>
    <circle id="Ellipse_143" data-name="Ellipse 143" cx="3.585" cy="3.585" r="3.585" transform="translate(516.332 301.195)" fill="#f7bbc2"/>
    <circle id="Ellipse_144" data-name="Ellipse 144" cx="3.585" cy="3.585" r="3.585" transform="translate(552.187 301.195)" fill="#f8c3c8"/>
  </g>
</svg>
